# xmcd
#
# Track frame offsets:
#	150
#	13331
#	26579
#	39796
#	54144
#	65885
#	79585
#	92909
#	103376
#	115570
#	127214
#	140994
#	153081
#	166220
#	177385
#	190475
#	204613
#	217373
#	230470
#	245068
#	255565
#	267160
#	281929
#	294811
#	309816
#
# Disc length: 4310 seconds
#
# Revision: 0
# Processed by: cddbd v1.5PL3 Copyright (c) Steve Scherf et al.
# Submitted via: dBpowerAMP V4.0
#
DISCID=7710d419
DTITLE=Various Artist - Sweet Home Chicago - CD2
DYEAR=1900
DGENRE=Blues
TTITLE0=Chicago Is Just That Way - Eddie Boyd
TTITLE1=You´ve Been Mistreating Me - Big Boy Broonzy
TTITLE2=Horse Shoe Boogie - Lee Brown
TTITLE3=P Wine Blues - Big Joe Williams
TTITLE4=The Blues What Am - Jazz Gillum
TTITLE5=One Doggone Reason - St Louis Jimmy
TTITLE6=Chicago Breakdown - Big Maceo
TTITLE7=Boogie - Snooky and Moody
TTITLE8=I Can´t Be Satisfied - Muddy Waters
TTITLE9=Mellow Chick Swing - Sonny Boy Williamson
TTITLE10=Black Angel Blues - Robert Nighthawk
TTITLE11=Let Me Ride Your Mule - Man Young
TTITLE12=Fine and Brown - Roosevelt Sykes
TTITLE13=Hard Times - Floyd Jones
TTITLE14=Let´s Roll - J.B. Lenoir
TTITLE15=Crawlin´ King Snake - Tony Hollins
TTITLE16=Rollin´ and Tumblin´ - Baby Face Leroy
TTITLE17=I Just Keep Lovin´ Her - Littler Walter
TTITLE18=Rollin´ and Tumblin´ - Baby Face Leroy
TTITLE19=She´s Dynamite - Tampa Red
TTITLE20=Saddle My Pony - Howlin´ Wolf
TTITLE21=Roll Tumble and Slip - Delta Joe
TTITLE22=Nobody Loves Me - Memphis Slim
TTITLE23=Chance To Love - Jimmy Rogers
TTITLE24=I´m Gonna Dig Myself A Hole - Big Boy Crudup
EXTD=
EXTT0=
EXTT1=
EXTT2=
EXTT3=
EXTT4=
EXTT5=
EXTT6=
EXTT7=
EXTT8=
EXTT9=
EXTT10=
EXTT11=
EXTT12=
EXTT13=
EXTT14=
EXTT15=
EXTT16=
EXTT17=
EXTT18=
EXTT19=
EXTT20=
EXTT21=
EXTT22=
EXTT23=
EXTT24=
PLAYORDER=
